<?xml version="1.0" standalone="no"?>
<!DOCTYPE svg PUBLIC "-//W3C//DTD SVG 20010904//EN"
 "http://www.w3.org/TR/2001/REC-SVG-20010904/DTD/svg10.dtd">
<svg version="1.0" xmlns="http://www.w3.org/2000/svg"
 width="1024.000000pt" height="1024.000000pt" viewBox="0 0 1024.000000 1024.000000"
 preserveAspectRatio="xMidYMid meet">

<g transform="translate(0.000000,1024.000000) scale(0.100000,-0.100000)"
fill="#000000" stroke="none">
<path d="M3278 8159 c-306 -36 -595 -180 -803 -401 -171 -182 -281 -403 -337
-681 l-23 -112 0 -1695 0 -1695 23 -107 c61 -291 191 -529 396 -726 175 -168
362 -263 640 -325 l101 -22 1840 0 c1483 0 1855 3 1915 13 309 55 520 160 716
356 185 184 295 391 356 669 l23 102 0 1725 0 1725 -22 101 c-79 355 -244 623
-505 819 -153 116 -322 191 -534 237 l-99 22 -1805 2 c-1005 1 -1839 -2 -1882
-7z m3756 -317 c448 -111 746 -470 796 -960 8 -74 10 -592 8 -1697 -5 -1754 0
-1621 -68 -1828 -124 -374 -443 -619 -868 -667 -68 -8 -620 -10 -1837 -8
-1736 4 -1740 4 -1830 25 -233 55 -386 141 -538 303 -148 157 -246 370 -277
605 -8 67 -10 509 -8 1725 4 1626 4 1635 25 1720 42 170 100 295 193 418 122
163 282 274 491 341 154 50 118 49 2034 47 l1790 -2 89 -22z"/>
<path d="M6876 7380 c-114 -36 -205 -119 -258 -236 -18 -41 -22 -67 -22 -159
-1 -141 20 -199 105 -289 240 -257 675 -129 728 214 41 259 -160 491 -421 489
-43 0 -98 -8 -132 -19z"/>
<path d="M4959 6830 c-295 -27 -579 -137 -816 -318 -110 -84 -278 -261 -352
-372 -165 -247 -240 -468 -266 -790 -7 -85 9 -287 31 -400 114 -567 573 -1047
1137 -1189 173 -44 282 -54 485 -48 262 8 442 52 667 164 157 77 281 169 425
313 283 282 429 612 447 1006 20 462 -148 873 -495 1205 -263 253 -583 395
-963 429 -126 11 -173 11 -300 0z m366 -315 c269 -41 512 -164 710 -359 138
-137 220 -259 289 -433 52 -131 76 -246 83 -403 15 -351 -93 -646 -329 -896
-309 -326 -759 -469 -1217 -388 -517 92 -915 492 -1005 1010 -21 116 -21 342
0 459 78 454 426 841 873 971 182 53 405 68 596 39z"/>
<path d="M4975 6223 c-330 -52 -616 -265 -750 -557 -58 -127 -79 -231 -79
-396 0 -179 22 -280 94 -425 119 -243 331 -419 605 -501 82 -25 105 -27 265
-28 153 -1 186 2 260 22 176 48 325 135 455 266 317 319 365 827 113 1194 -48
69 -163 186 -237 241 -87 64 -210 125 -318 157 -74 22 -112 27 -233 29 -80 2
-158 1 -175 -2z"/>
</g>
</svg>
