<?xml version="1.0" standalone="no"?>
<!DOCTYPE svg PUBLIC "-//W3C//DTD SVG 20010904//EN"
 "http://www.w3.org/TR/2001/REC-SVG-20010904/DTD/svg10.dtd">
<svg version="1.0" xmlns="http://www.w3.org/2000/svg"
 width="1024.000000pt" height="1024.000000pt" viewBox="0 0 1024.000000 1024.000000"
 preserveAspectRatio="xMidYMid meet">

<g transform="translate(0.000000,1024.000000) scale(0.100000,-0.100000)"
fill="#000000" stroke="none">
<path d="M2691 7699 c-48 -19 -84 -54 -107 -103 l-24 -51 0 -2426 0 -2425 25
-50 c36 -70 92 -107 170 -112 67 -4 67 -5 485 173 107 46 265 112 350 148 85
36 315 133 510 215 195 82 382 161 415 175 33 13 179 75 325 136 186 79 273
111 291 107 14 -2 72 -25 130 -49 94 -40 1009 -426 1644 -694 138 -58 307
-130 378 -159 177 -75 242 -75 326 1 77 70 71 -155 71 2542 0 2159 -2 2418
-16 2451 -19 47 -58 88 -106 113 -36 19 -95 19 -2440 18 -1481 0 -2412 -4
-2427 -10z m4727 -2566 c1 -1278 -1 -2323 -6 -2323 -4 0 -54 21 -112 46 -95
41 -486 206 -980 414 -102 43 -282 118 -400 168 -118 50 -291 123 -385 162
-401 169 -407 172 -434 165 -14 -4 -96 -36 -181 -72 -85 -36 -195 -82 -245
-103 -49 -21 -193 -81 -320 -135 -126 -53 -309 -130 -405 -170 -96 -40 -310
-130 -475 -200 -165 -70 -340 -144 -390 -165 -49 -21 -128 -54 -175 -74 -46
-20 -86 -36 -87 -36 -2 0 -3 1046 -3 2325 l0 2325 2298 -2 2297 -3 3 -2322z"/>
<path d="M3193 6804 c-91 -45 -90 -180 2 -224 l43 -21 1868 2 c1028 1 1887 5
1908 10 59 12 88 47 94 111 3 44 0 58 -19 82 -47 60 80 56 -1976 56 -1700 0
-1891 -2 -1920 -16z"/>
<path d="M3194 6031 c-34 -15 -45 -28 -59 -65 -17 -44 -17 -48 0 -92 14 -37
25 -50 59 -65 40 -18 105 -19 1924 -19 2046 0 1924 -3 1970 55 30 38 30 112 0
150 -46 58 76 55 -1970 55 -1819 0 -1884 -1 -1924 -19z"/>
<path d="M3216 5270 c-61 -19 -102 -84 -90 -146 8 -44 55 -91 97 -99 18 -3
884 -4 1925 -3 l1894 3 34 37 c27 30 34 46 34 78 0 50 -20 91 -57 116 -27 18
-80 19 -1918 21 -1039 1 -1903 -2 -1919 -7z"/>
</g>
</svg>
